<svg width="32" height="32" viewBox="0 0 32 32" fill="none" xmlns="http://www.w3.org/2000/svg">
<path d="M20 25C19.8684 25.0008 19.7379 24.9755 19.6161 24.9258C19.4943 24.876 19.3834 24.8027 19.29 24.71L11.29 16.71C11.1963 16.617 11.1219 16.5064 11.0711 16.3846C11.0203 16.2627 10.9942 16.132 10.9942 16C10.9942 15.868 11.0203 15.7373 11.0711 15.6154C11.1219 15.4936 11.1963 15.383 11.29 15.29L19.29 7.29C19.4783 7.1017 19.7337 6.99591 20 6.99591C20.2663 6.99591 20.5217 7.1017 20.71 7.29C20.8983 7.47831 21.0041 7.7337 21.0041 8C21.0041 8.2663 20.8983 8.5217 20.71 8.71L13.41 16L20.71 23.29C20.8037 23.383 20.8781 23.4936 20.9289 23.6154C20.9797 23.7373 21.0058 23.868 21.0058 24C21.0058 24.132 20.9797 24.2627 20.9289 24.3846C20.8781 24.5064 20.8037 24.617 20.71 24.71C20.6166 24.8027 20.5057 24.876 20.3839 24.9258C20.2621 24.9755 20.1316 25.0008 20 25Z" fill="black"/>
</svg>
