<svg width="32" height="32" viewBox="0 0 32 32" fill="none" xmlns="http://www.w3.org/2000/svg">
<path d="M12 25C12.1316 25.0008 12.2621 24.9755 12.3839 24.9258C12.5057 24.876 12.6166 24.8027 12.71 24.71L20.71 16.71C20.8037 16.617 20.8781 16.5064 20.9289 16.3846C20.9797 16.2627 21.0058 16.132 21.0058 16C21.0058 15.868 20.9797 15.7373 20.9289 15.6154C20.8781 15.4936 20.8037 15.383 20.71 15.29L12.71 7.29C12.5217 7.1017 12.2663 6.99591 12 6.99591C11.7337 6.99591 11.4783 7.1017 11.29 7.29C11.1017 7.47831 10.9959 7.7337 10.9959 8C10.9959 8.2663 11.1017 8.5217 11.29 8.71L18.59 16L11.29 23.29C11.1963 23.383 11.1219 23.4936 11.0711 23.6154C11.0203 23.7373 10.9942 23.868 10.9942 24C10.9942 24.132 11.0203 24.2627 11.0711 24.3846C11.1219 24.5064 11.1963 24.617 11.29 24.71C11.3834 24.8027 11.4943 24.876 11.6161 24.9258C11.7379 24.9755 11.8684 25.0008 12 25Z" fill="black"/>
</svg>
