<svg id="color_line" height="512" viewBox="0 0 74 74" width="512" xmlns="http://www.w3.org/2000/svg" data-name="color line"><path d="m33.875 4.84h6.58v4.86h-6.58z" fill="#eeefee"/><path d="m33.875 25.45h6.58v4.742h-6.58z" fill="#eeefee"/><path d="m33.875 45.24h6.58v23.92h-6.58z" fill="#eeefee"/><path d="m37.56 4.84h2.89v4.86h-2.89z" fill="#e1e6e9"/><path d="m37.56 25.45h2.89v4.74h-2.89z" fill="#e1e6e9"/><path d="m37.56 45.24h2.89v23.92h-2.89z" fill="#e1e6e9"/><path d="m40.455 10.2h-6.58a.5.5 0 0 1 -.5-.5v-4.86a.5.5 0 0 1 .5-.5h6.58a.5.5 0 0 1 .5.5v4.86a.5.5 0 0 1 -.5.5zm-6.08-1h5.58v-3.86h-5.58z" fill="#323c6b"/><path d="m40.455 30.691h-6.58a.5.5 0 0 1 -.5-.5v-4.741a.5.5 0 0 1 .5-.5h6.58a.5.5 0 0 1 .5.5v4.741a.5.5 0 0 1 -.5.5zm-6.08-1h5.58v-3.741h-5.58z" fill="#323c6b"/><path d="m40.455 69.66h-6.58a.5.5 0 0 1 -.5-.5v-23.92a.5.5 0 0 1 .5-.5h6.58a.5.5 0 0 1 .5.5v23.92a.5.5 0 0 1 -.5.5zm-6.08-1h5.58v-22.92h-5.58z" fill="#323c6b"/><path d="m71 17.859-10.29 8.149h-32.37v-16.308h32.37z" fill="#e7aa6c"/><path d="m45.66 30.192v16.308h-32.37l-10.29-8.149 10.29-8.159z" fill="#e7aa6c"/><path d="m71 17.86-2.79 2.21-9.33-7.4h-30.54v-2.97h32.37z" fill="#d09865"/><path d="m45.66 30.19v2.8h-31.83l-8.79 6.97-2.04-1.61 10.29-8.16z" fill="#d09865"/><path d="m37.564 15.058a79.661 79.661 0 0 1 9.468-.5 78.826 78.826 0 0 1 9.468.5 78.621 78.621 0 0 1 -9.468.5 79.452 79.452 0 0 1 -9.468-.5z" fill="#d09865"/><path d="m37.564 20.65a79.662 79.662 0 0 1 9.468-.5 78.621 78.621 0 0 1 9.468.5 78.621 78.621 0 0 1 -9.468.5 79.874 79.874 0 0 1 -9.468-.5z" fill="#d09865"/><path d="m18 35.55a79.874 79.874 0 0 1 9.468-.5 78.621 78.621 0 0 1 9.468.5 78.621 78.621 0 0 1 -9.468.5 79.662 79.662 0 0 1 -9.468-.5z" fill="#d09865"/><path d="m18 41.142a79.452 79.452 0 0 1 9.468-.5 78.621 78.621 0 0 1 9.468.5 78.826 78.826 0 0 1 -9.468.5 79.661 79.661 0 0 1 -9.468-.5z" fill="#d09865"/><g fill="#323c6b"><path d="m60.71 26.508h-32.37a.5.5 0 0 1 -.5-.5v-16.308a.5.5 0 0 1 .5-.5h32.37a.5.5 0 0 1 .311.109l10.29 8.159a.5.5 0 0 1 0 .783l-10.29 8.149a.5.5 0 0 1 -.311.108zm-31.87-1h31.7l9.659-7.649-9.663-7.659h-31.696z"/><path d="m45.66 47h-32.37a.5.5 0 0 1 -.311-.108l-10.29-8.149a.5.5 0 0 1 0-.784l10.29-8.159a.5.5 0 0 1 .311-.109h32.37a.5.5 0 0 1 .5.5v16.309a.5.5 0 0 1 -.5.5zm-32.2-1h31.7v-15.309h-31.7l-9.659 7.66z"/><path d="m25.34 16.125a.5.5 0 0 1 -.5-.5v-.531a.5.5 0 1 1 1 0v.531a.5.5 0 0 1 -.5.5z"/><path d="m25.34 13.344a.5.5 0 0 1 -.5-.5v-6.144a.5.5 0 0 1 .5-.5h3.1a.5.5 0 0 1 0 1h-2.6v5.644a.5.5 0 0 1 -.5.5z"/><path d="m29.25 50h-.5a.5.5 0 0 1 0-1h.5a.5.5 0 0 1 0 1z"/><path d="m26.438 50h-7.813a.5.5 0 0 1 0-1h7.813a.5.5 0 1 1 0 1z"/></g><path d="m38.469 23.7h-.894a.65.65 0 1 1 0-1.3h.894a.65.65 0 1 1 0 1.3z" fill="#fff"/><path d="m50.312 23.7h-9.268a.65.65 0 0 1 0-1.3h9.268a.65.65 0 1 1 0 1.3z" fill="#fff"/></svg>