<svg width="50" height="50" fill="none" xmlns="http://www.w3.org/2000/svg"><path d="M22.889 3.27h4.445v3.284H22.89V3.27zm0 13.926h4.445V20.4H22.89v-3.204zm0 13.372h4.445V46.73H22.89V30.568z" fill="#EEEFEE"/><path d="M25.378 3.27h1.953v3.284h-1.953V3.27zm0 13.926h1.953v3.203h-1.953v-3.203zm0 13.372h1.953V46.73h-1.953V30.568z" fill="#E1E6E9"/><path d="M27.334 6.892H22.89a.338.338 0 01-.338-.338V3.27a.338.338 0 01.338-.338h4.445a.338.338 0 01.338.338v3.284a.338.338 0 01-.338.338zm-4.108-.676h3.77V3.608h-3.77v2.608zm4.108 14.521H22.89a.338.338 0 01-.338-.338v-3.203a.338.338 0 01.338-.338h4.445a.337.337 0 01.338.338v3.203a.338.338 0 01-.338.338zm-4.108-.675h3.77v-2.528h-3.77v2.527zm4.108 27.006H22.89a.338.338 0 01-.338-.338V30.568a.338.338 0 01.338-.338h4.445a.337.337 0 01.338.338V46.73a.338.338 0 01-.338.338zm-4.108-.676h3.77V30.905h-3.77v15.487z" fill="#323C6B"/><path d="M47.973 12.067l-6.953 5.506H19.15V6.554h21.87l6.953 5.513zM30.851 20.4v11.019H8.98l-6.953-5.506L8.98 20.4h21.87z" fill="#E7AA6C"/><path d="M47.973 12.068l-1.885 1.493-6.304-5H19.149V6.554H41.02l6.953 5.514zm-17.122 8.331v1.892H9.345L3.405 27l-1.378-1.088L8.98 20.4h21.87z" fill="#D09865"/><path d="M25.381 10.174a53.83 53.83 0 016.397-.338 53.265 53.265 0 016.398.338c-2.124.242-4.26.354-6.398.338a53.682 53.682 0 01-6.397-.338zm0 3.779a53.83 53.83 0 016.397-.338 53.12 53.12 0 016.398.338 53.12 53.12 0 01-6.398.338 53.956 53.956 0 01-6.397-.338zM12.162 24.02a54.042 54.042 0 016.397-.338 53.122 53.122 0 016.398.338c-2.124.242-4.26.354-6.398.338a53.83 53.83 0 01-6.397-.338zm0 3.779a53.62 53.62 0 016.397-.338 53.122 53.122 0 016.398.338c-2.124.24-4.26.353-6.398.338a53.808 53.808 0 01-6.397-.338z" fill="#D09865"/><path d="M41.02 17.91H19.15a.338.338 0 01-.338-.337V6.554a.338.338 0 01.338-.338h21.87c.077 0 .15.026.21.074l6.953 5.513a.338.338 0 010 .529l-6.953 5.506a.338.338 0 01-.21.073zm-21.534-.675h21.42l6.526-5.168-6.53-5.175H19.487v10.343zm11.365 14.522H8.98a.338.338 0 01-.21-.073l-6.953-5.506a.338.338 0 010-.53l6.953-5.513a.338.338 0 01.21-.074h21.87a.338.338 0 01.338.338v11.02a.338.338 0 01-.338.338zM9.095 31.08h21.419V20.737H9.093l-6.526 5.176 6.527 5.168zm8.027-20.185a.338.338 0 01-.338-.338V10.2a.338.338 0 01.675 0v.358a.338.338 0 01-.337.338zm0-1.879a.338.338 0 01-.338-.338V4.527a.338.338 0 01.338-.338h2.094a.338.338 0 010 .676H17.46v3.813a.338.338 0 01-.337.338zm2.642 24.768h-.338a.338.338 0 110-.676h.338a.338.338 0 010 .676zm-1.901 0h-5.278a.338.338 0 110-.676h5.278a.338.338 0 010 .676z" fill="#323C6B"/><path d="M25.993 16.014h-.604a.44.44 0 010-.879h.604a.439.439 0 010 .879zm8.002 0h-6.263a.44.44 0 010-.879h6.263a.439.439 0 110 .879z" fill="#fff"/></svg>