<svg width="195" height="50" fill="none" xmlns="http://www.w3.org/2000/svg"><path d="M22.889 3.27h4.445v3.284H22.89V3.27zm0 13.926h4.445V20.4H22.89v-3.204zm0 13.372h4.445V46.73H22.89V30.568z" fill="#EEEFEE"/><path d="M25.378 3.27h1.953v3.284h-1.953V3.27zm0 13.926h1.953v3.203h-1.953v-3.203zm0 13.372h1.953V46.73h-1.953V30.568z" fill="#E1E6E9"/><path d="M27.334 6.892H22.89a.338.338 0 01-.338-.338V3.27a.338.338 0 01.338-.338h4.445a.338.338 0 01.338.338v3.284a.338.338 0 01-.338.338zm-4.108-.676h3.77V3.608h-3.77v2.608zm4.108 14.521H22.89a.338.338 0 01-.338-.338v-3.203a.338.338 0 01.338-.338h4.445a.337.337 0 01.338.338v3.203a.338.338 0 01-.338.338zm-4.108-.675h3.77v-2.528h-3.77v2.527zm4.108 27.006H22.89a.338.338 0 01-.338-.338V30.568a.338.338 0 01.338-.338h4.445a.337.337 0 01.338.338V46.73a.338.338 0 01-.338.338zm-4.108-.676h3.77V30.905h-3.77v15.487z" fill="#323C6B"/><path d="M47.973 12.067l-6.953 5.506H19.15V6.554h21.87l6.953 5.513zM30.851 20.4v11.019H8.98l-6.953-5.506L8.98 20.4h21.87z" fill="#E7AA6C"/><path d="M47.973 12.068l-1.885 1.493-6.304-5H19.149V6.554H41.02l6.953 5.514zm-17.122 8.331v1.892H9.345L3.405 27l-1.378-1.088L8.98 20.4h21.87z" fill="#D09865"/><path d="M25.381 10.174a53.83 53.83 0 016.397-.338 53.265 53.265 0 016.398.338c-2.124.242-4.26.354-6.398.338a53.682 53.682 0 01-6.397-.338zm0 3.779a53.83 53.83 0 016.397-.338 53.12 53.12 0 016.398.338 53.12 53.12 0 01-6.398.338 53.956 53.956 0 01-6.397-.338zM12.162 24.02a54.042 54.042 0 016.397-.338 53.122 53.122 0 016.398.338c-2.124.242-4.26.354-6.398.338a53.83 53.83 0 01-6.397-.338zm0 3.779a53.62 53.62 0 016.397-.338 53.122 53.122 0 016.398.338c-2.124.24-4.26.353-6.398.338a53.808 53.808 0 01-6.397-.338z" fill="#D09865"/><path d="M41.02 17.91H19.15a.338.338 0 01-.338-.337V6.554a.338.338 0 01.338-.338h21.87c.077 0 .15.026.21.074l6.953 5.513a.338.338 0 010 .529l-6.953 5.506a.338.338 0 01-.21.073zm-21.534-.675h21.42l6.526-5.168-6.53-5.175H19.487v10.343zm11.365 14.522H8.98a.338.338 0 01-.21-.073l-6.953-5.506a.338.338 0 010-.53l6.953-5.513a.338.338 0 01.21-.074h21.87a.338.338 0 01.338.338v11.02a.338.338 0 01-.338.338zM9.095 31.08h21.419V20.737H9.093l-6.526 5.176 6.527 5.168zm8.027-20.185a.338.338 0 01-.338-.338V10.2a.338.338 0 01.675 0v.358a.338.338 0 01-.337.338zm0-1.879a.338.338 0 01-.338-.338V4.527a.338.338 0 01.338-.338h2.094a.338.338 0 010 .676H17.46v3.813a.338.338 0 01-.337.338zm2.642 24.768h-.338a.338.338 0 110-.676h.338a.338.338 0 010 .676zm-1.901 0h-5.278a.338.338 0 110-.676h5.278a.338.338 0 010 .676z" fill="#323C6B"/><path d="M25.993 16.014h-.604a.44.44 0 010-.879h.604a.439.439 0 010 .879zm8.002 0h-6.263a.44.44 0 010-.879h6.263a.439.439 0 110 .879z" fill="#fff"/><path d="M87.392 17.552h-8.064V38h-5.76V17.552H65.54V12.8h21.852v4.752zm14.22.792c1.8 0 3.432.42 4.896 1.26 1.488.816 2.652 1.98 3.492 3.492.84 1.488 1.26 3.228 1.26 5.22 0 1.992-.42 3.744-1.26 5.256a9.043 9.043 0 01-3.492 3.492c-1.464.816-3.096 1.224-4.896 1.224-2.472 0-4.416-.78-5.832-2.34v9.036h-5.616V18.632h5.364v2.232c1.392-1.68 3.42-2.52 6.084-2.52zm-.972 15.336c1.44 0 2.616-.48 3.528-1.44.936-.984 1.404-2.292 1.404-3.924 0-1.632-.468-2.928-1.404-3.888-.912-.984-2.088-1.476-3.528-1.476s-2.628.492-3.564 1.476c-.912.96-1.368 2.256-1.368 3.888 0 1.632.456 2.94 1.368 3.924.936.96 2.124 1.44 3.564 1.44zm23.628 4.608c-2.04 0-3.876-.42-5.508-1.26-1.608-.864-2.868-2.052-3.78-3.564-.912-1.512-1.368-3.228-1.368-5.148 0-1.92.456-3.636 1.368-5.148.912-1.512 2.172-2.688 3.78-3.528 1.632-.864 3.468-1.296 5.508-1.296s3.864.432 5.472 1.296c1.608.84 2.868 2.016 3.78 3.528.912 1.512 1.368 3.228 1.368 5.148 0 1.92-.456 3.636-1.368 5.148-.912 1.512-2.172 2.7-3.78 3.564-1.608.84-3.432 1.26-5.472 1.26zm0-4.608c1.44 0 2.616-.48 3.528-1.44.936-.984 1.404-2.292 1.404-3.924 0-1.632-.468-2.928-1.404-3.888-.912-.984-2.088-1.476-3.528-1.476s-2.628.492-3.564 1.476c-.936.96-1.404 2.256-1.404 3.888 0 1.632.468 2.94 1.404 3.924.936.96 2.124 1.44 3.564 1.44zm33.743-15.048V38h-5.616V23.24h-8.064V38h-5.58V18.632h19.26zm13.916 12.024h-2.916V38h-5.616V18.632h5.616v7.524h3.024l5.256-7.524h5.976l-6.768 9.288L183.735 38h-6.624l-5.184-7.344zm14.458-12.024h5.616V38h-5.616V18.632zm2.808-2.7c-1.032 0-1.872-.3-2.52-.9-.648-.6-.972-1.344-.972-2.232 0-.888.324-1.632.972-2.232.648-.6 1.488-.9 2.52-.9s1.872.288 2.52.864c.648.576.972 1.296.972 2.16 0 .936-.324 1.716-.972 2.34-.648.6-1.488.9-2.52.9z" fill="#EEEFEE"/><path d="M87.392 17.552v1h1v-1h-1zm-8.064 0v-1h-1v1h1zm0 20.448v1h1v-1h-1zm-5.76 0h-1v1h1v-1zm0-20.448h1v-1h-1v1zm-8.028 0h-1v1h1v-1zm0-4.752v-1h-1v1h1zm21.852 0h1v-1h-1v1zm0 3.752h-8.064v2h8.064v-2zm-9.064 1V38h2V17.552h-2zm1 19.448h-5.76v2h5.76v-2zm-4.76 1V17.552h-2V38h2zm-1-21.448H65.54v2h8.028v-2zm-7.028 1V12.8h-2v4.752h2zm-1-3.752h21.852v-2H65.54v2zm20.852-1v4.752h2V12.8h-2zm20.116 6.804l-.498.867.009.005.008.005.481-.877zM110 23.096l-.874.486.003.006.871-.492zm0 10.476l.871.492.003-.006-.874-.486zm-3.492 3.492l.487.873.005-.002-.492-.871zM95.78 35.948l.74-.672-1.74-1.918v2.59h1zm0 9.036v1h1v-1h-1zm-5.616 0h-1v1h1v-1zm0-26.352v-1h-1v1h1zm5.364 0h1v-1h-1v1zm0 2.232h-1v2.774l1.77-2.136-.77-.638zm8.64 11.376l-.725-.69v.001l.725.689zm0-7.812l-.733.68.008.009.009.01.716-.699zm-7.092 0l-.725-.69v.001l.725.689zm0 7.812l-.733.68.008.009.009.01.716-.699zm4.536-12.896c1.637 0 3.096.38 4.398 1.127l.996-1.734c-1.626-.933-3.431-1.393-5.394-1.393v2zm4.415 1.137c1.319.723 2.349 1.75 3.099 3.1l1.748-.97c-.93-1.674-2.228-2.975-3.885-3.884l-.962 1.754zm3.102 3.107c.742 1.314 1.131 2.88 1.131 4.728h2c0-2.136-.451-4.05-1.389-5.712l-1.742.984zm1.131 4.728c0 1.848-.388 3.428-1.134 4.77l1.748.972c.934-1.682 1.386-3.606 1.386-5.742h-2zm-1.131 4.764a8.037 8.037 0 01-3.113 3.113l.984 1.742a10.049 10.049 0 003.871-3.871l-1.742-.984zm-3.108 3.11c-1.304.727-2.766 1.098-4.409 1.098v2c1.957 0 3.759-.445 5.383-1.35l-.974-1.748zm-4.409 1.098c-2.243 0-3.898-.697-5.091-2.012L95.04 36.62c1.638 1.806 3.871 2.668 6.572 2.668v-2zm-6.832-1.34v9.036h2v-9.036h-2zm1 8.036h-5.616v2h5.616v-2zm-4.616 1V18.632h-2v26.352h2zm-1-25.352h5.364v-2h-5.364v2zm4.364-1v2.232h2v-2.232h-2zm1.77 2.87c1.16-1.4 2.876-2.158 5.314-2.158v-2c-2.89 0-5.23.922-6.854 2.882l1.54 1.276zm4.342 13.178c1.687 0 3.135-.574 4.253-1.751l-1.45-1.378c-.706.743-1.61 1.129-2.803 1.129v2zm4.253-1.75c1.147-1.207 1.679-2.78 1.679-4.614h-2c0 1.43-.404 2.473-1.129 3.235l1.45 1.378zm1.679-4.614c0-1.833-.532-3.4-1.688-4.586l-1.432 1.396c.716.734 1.12 1.759 1.12 3.19h2zm-1.671-4.568c-1.116-1.204-2.565-1.796-4.261-1.796v2c1.184 0 2.087.392 2.795 1.156l1.466-1.36zm-4.261-1.796c-1.695 0-3.151.591-4.289 1.787l1.45 1.378c.734-.772 1.654-1.165 2.839-1.165v-2zm-4.289 1.787c-1.127 1.187-1.643 2.751-1.643 4.577h2c0-1.438.397-2.466 1.093-3.2l-1.45-1.377zm-1.643 4.577c0 1.827.516 3.397 1.635 4.604l1.466-1.36c-.705-.76-1.101-1.807-1.101-3.244h-2zm1.652 4.622c1.14 1.168 2.593 1.742 4.28 1.742v-2c-1.192 0-2.115-.386-2.848-1.138l-1.432 1.396zm22.4 4.09l-.473.88.008.005.007.004.458-.889zm-3.78-3.564l-.856.517.856-.517zm0-10.296l-.856-.517.856.517zm3.78-3.528l.463.886.005-.002-.468-.884zm10.98 0l-.473.881.01.005.463-.886zm3.78 3.528l.856-.517-.856.517zm0 10.296l.856.517-.856-.517zm-3.78 3.564l.463.886.01-.005-.473-.881zm-1.944-4.788l-.724-.69-.001.001.725.689zm0-7.812l-.733.68.008.009.009.01.716-.699zm-7.092 0l.716.698.009-.009-.725-.689zm0 7.812l-.725.69.009.008.716-.698zm3.564 5.048c-1.899 0-3.575-.39-5.05-1.15l-.916 1.78c1.789.92 3.785 1.37 5.966 1.37v-2zm-5.035-1.14c-1.455-.783-2.58-1.848-3.397-3.2l-1.712 1.032c1.008 1.672 2.402 2.983 4.163 3.929l.946-1.762zm-3.397-3.2c-.809-1.343-1.224-2.878-1.224-4.632h-2c0 2.086.498 3.983 1.512 5.665l1.712-1.034zm-1.224-4.632c0-1.754.415-3.289 1.224-4.631l-1.712-1.034c-1.014 1.682-1.512 3.58-1.512 5.665h2zm1.224-4.631c.815-1.351 1.937-2.401 3.387-3.159l-.926-1.772c-1.766.922-3.164 2.224-4.173 3.897l1.712 1.034zm3.392-3.161c1.473-.78 3.146-1.18 5.04-1.18v-2c-2.186 0-4.185.464-5.976 1.412l.936 1.768zm5.04-1.18c1.895 0 3.553.4 4.999 1.177l.946-1.762c-1.77-.95-3.759-1.415-5.945-1.415v2zm5.009 1.182c1.45.758 2.572 1.808 3.387 3.159l1.712-1.034c-1.009-1.673-2.407-2.975-4.173-3.897l-.926 1.772zm3.387 3.159c.81 1.342 1.224 2.877 1.224 4.631h2c0-2.086-.497-3.983-1.512-5.665l-1.712 1.034zm1.224 4.631c0 1.754-.414 3.289-1.224 4.631l1.712 1.033c1.015-1.68 1.512-3.578 1.512-5.664h-2zm-1.224 4.631c-.816 1.353-1.942 2.418-3.397 3.2l.946 1.762c1.761-.946 3.156-2.258 4.163-3.928l-1.712-1.034zm-3.387 3.195c-1.448.756-3.11 1.146-5.009 1.146v2c2.181 0 4.167-.45 5.935-1.374l-.926-1.772zm-5.009-1.462c1.688 0 3.135-.574 4.253-1.751l-1.45-1.378c-.706.743-1.61 1.129-2.803 1.129v2zm4.253-1.75c1.147-1.207 1.679-2.78 1.679-4.614h-2c0 1.43-.404 2.473-1.128 3.235l1.449 1.378zm1.679-4.614c0-1.833-.532-3.4-1.688-4.586l-1.432 1.396c.716.734 1.12 1.759 1.12 3.19h2zm-1.67-4.568c-1.117-1.204-2.566-1.796-4.262-1.796v2c1.185 0 2.087.392 2.795 1.156l1.467-1.36zm-4.262-1.796c-1.695 0-3.151.591-4.288 1.787l1.449 1.378c.735-.772 1.654-1.165 2.839-1.165v-2zm-4.28 1.778c-1.156 1.186-1.688 2.753-1.688 4.586h2c0-1.431.404-2.456 1.12-3.19l-1.432-1.396zm-1.688 4.586c0 1.834.532 3.407 1.68 4.613l1.449-1.378c-.725-.762-1.129-1.805-1.129-3.235h-2zm1.688 4.622c1.139 1.168 2.593 1.742 4.28 1.742v-2c-1.192 0-2.115-.386-2.848-1.138l-1.432 1.396zm38.023-14.306h1v-1h-1v1zm0 19.368v1h1v-1h-1zm-5.616 0h-1v1h1v-1zm0-14.76h1v-1h-1v1zm-8.064 0v-1h-1v1h1zm0 14.76v1h1v-1h-1zm-5.58 0h-1v1h1v-1zm0-19.368v-1h-1v1h1zm18.26 0V38h2V18.632h-2zm1 18.368h-5.616v2h5.616v-2zm-4.616 1V23.24h-2V38h2zm-1-15.76h-8.064v2h8.064v-2zm-9.064 1V38h2V23.24h-2zm1 13.76h-5.58v2h5.58v-2zm-4.58 1V18.632h-2V38h2zm-1-18.368h19.26v-2h-19.26v2zm33.176 11.024l.817-.577-.299-.423h-.518v1zm-2.916 0v-1h-1v1h1zm0 7.344v1h1v-1h-1zm-5.616 0h-1v1h1v-1zm0-19.368v-1h-1v1h1zm5.616 0h1v-1h-1v1zm0 7.524h-1v1h1v-1zm3.024 0v1h.522l.298-.427-.82-.573zm5.256-7.524v-1h-.521l-.298.427.819.573zm5.976 0l.809.589 1.157-1.589h-1.966v1zm-6.768 9.288l-.808-.589-.426.585.422.587.812-.583zM183.735 38v1h1.949l-1.136-1.583-.813.583zm-6.624 0l-.817.577.299.423h.518v-1zm-5.184-8.344h-2.916v2h2.916v-2zm-3.916 1V38h2v-7.344h-2zm1 6.344h-5.616v2h5.616v-2zm-4.616 1V18.632h-2V38h2zm-1-18.368h5.616v-2h-5.616v2zm4.616-1v7.524h2v-7.524h-2zm1 8.524h3.024v-2h-3.024v2zm3.844-.427l5.256-7.524-1.639-1.146-5.256 7.524 1.639 1.146zm4.436-7.097h5.976v-2h-5.976v2zm5.168-1.589l-6.768 9.288 1.617 1.178 6.768-9.288-1.617-1.178zm-6.772 10.46l7.236 10.08 1.625-1.166-7.236-10.08-1.625 1.166zM183.735 37h-6.624v2h6.624v-2zm-5.807.423l-5.184-7.344-1.634 1.154 5.184 7.344 1.634-1.154zm8.457-18.791v-1h-1v1h1zm5.616 0h1v-1h-1v1zm0 19.368v1h1v-1h-1zm-5.616 0h-1v1h1v-1zm.288-22.968l-.679.734.679-.734zm0-4.464l.679.734-.679-.734zm5.04-.036l-.664.747.664-.747zm0 4.5l.679.734.008-.007.007-.007-.694-.72zm-5.328 4.6h5.616v-2h-5.616v2zm4.616-1V38h2V18.632h-2zm1 18.368h-5.616v2h5.616v-2zm-4.616 1V18.632h-2V38h2zm1.808-23.068c-.825 0-1.408-.233-1.841-.634l-1.358 1.468c.863.8 1.96 1.166 3.199 1.166v-2zm-1.841-.634c-.442-.41-.651-.887-.651-1.498h-2c0 1.165.439 2.175 1.293 2.966l1.358-1.468zm-.651-1.498c0-.611.209-1.089.651-1.498l-1.358-1.468c-.854.79-1.293 1.801-1.293 2.966h2zm.651-1.498c.433-.4 1.016-.634 1.841-.634v-2c-1.239 0-2.336.367-3.199 1.166l1.358 1.468zm1.841-.634c.836 0 1.424.228 1.856.611l1.328-1.494c-.864-.769-1.956-1.117-3.184-1.117v2zm1.856.611c.435.387.636.836.636 1.413h2c0-1.15-.447-2.142-1.308-2.907l-1.328 1.494zm.636 1.413c0 .677-.222 1.193-.666 1.62l1.388 1.44c.852-.82 1.278-1.865 1.278-3.06h-2zm-.651 1.606c-.433.4-1.016.634-1.841.634v2c1.239 0 2.336-.367 3.199-1.166l-1.358-1.468z" fill="#323C6B"/></svg>