<svg width="195" height="50" viewBox="0 0 195 50" fill="none" xmlns="http://www.w3.org/2000/svg">
<path d="M22.8885 3.27026H27.3345V6.55405H22.8885V3.27026Z" fill="#EEEFEE"/>
<path d="M22.8885 17.1959H27.3345V20.4H22.8885V17.1959Z" fill="#EEEFEE"/>
<path d="M22.8885 30.5676H27.3345V46.7297H22.8885V30.5676Z" fill="#EEEFEE"/>
<path d="M25.3784 3.27026H27.3311V6.55405H25.3784V3.27026Z" fill="#E1E6E9"/>
<path d="M25.3784 17.1959H27.3311V20.3986H25.3784V17.1959Z" fill="#E1E6E9"/>
<path d="M25.3784 30.5676H27.3311V46.7297H25.3784V30.5676Z" fill="#E1E6E9"/>
<path d="M27.3345 6.89189H22.8885C22.7989 6.89189 22.713 6.8563 22.6496 6.79294C22.5863 6.72959 22.5507 6.64366 22.5507 6.55406V3.27027C22.5507 3.18067 22.5863 3.09474 22.6496 3.03138C22.713 2.96803 22.7989 2.93243 22.8885 2.93243H27.3345C27.4241 2.93243 27.51 2.96803 27.5733 3.03138C27.6367 3.09474 27.6723 3.18067 27.6723 3.27027V6.55406C27.6723 6.64366 27.6367 6.72959 27.5733 6.79294C27.51 6.8563 27.4241 6.89189 27.3345 6.89189ZM23.2264 6.21622H26.9966V3.60811H23.2264V6.21622Z" fill="#323C6B"/>
<path d="M27.3345 20.7372H22.8885C22.7989 20.7372 22.713 20.7016 22.6496 20.6382C22.5863 20.5749 22.5507 20.4889 22.5507 20.3993V17.1959C22.5507 17.1063 22.5863 17.0204 22.6496 16.9571C22.713 16.8937 22.7989 16.8581 22.8885 16.8581H27.3345C27.4241 16.8581 27.51 16.8937 27.5733 16.9571C27.6367 17.0204 27.6723 17.1063 27.6723 17.1959V20.3993C27.6723 20.4889 27.6367 20.5749 27.5733 20.6382C27.51 20.7016 27.4241 20.7372 27.3345 20.7372ZM23.2264 20.0615H26.9966V17.5338H23.2264V20.0615Z" fill="#323C6B"/>
<path d="M27.3345 47.0676H22.8885C22.7989 47.0676 22.713 47.032 22.6496 46.9686C22.5863 46.9053 22.5507 46.8193 22.5507 46.7297V30.5676C22.5507 30.478 22.5863 30.392 22.6496 30.3287C22.713 30.2653 22.7989 30.2297 22.8885 30.2297H27.3345C27.4241 30.2297 27.51 30.2653 27.5733 30.3287C27.6367 30.392 27.6723 30.478 27.6723 30.5676V46.7297C27.6723 46.8193 27.6367 46.9053 27.5733 46.9686C27.51 47.032 27.4241 47.0676 27.3345 47.0676ZM23.2264 46.3919H26.9966V30.9054H23.2264V46.3919Z" fill="#323C6B"/>
<path d="M47.973 12.0669L41.0203 17.573H19.1486V6.55406H41.0203L47.973 12.0669Z" fill="#E7AA6C"/>
<path d="M30.8514 20.4V31.4189H8.97973L2.02703 25.9128L8.97973 20.4H30.8514Z" fill="#E7AA6C"/>
<path d="M47.973 12.0676L46.0878 13.5608L39.7838 8.56082H19.1486V6.55406H41.0203L47.973 12.0676Z" fill="#D09865"/>
<path d="M30.8514 20.3987V22.2905H9.34459L3.40541 27L2.02703 25.9122L8.97973 20.3987H30.8514Z" fill="#D09865"/>
<path d="M25.3811 10.1743C27.5049 9.9348 29.6411 9.82199 31.7784 9.83649C33.9157 9.82064 36.052 9.93345 38.1757 10.1743C36.052 10.4155 33.9157 10.5283 31.7784 10.5122C29.6411 10.527 27.5049 10.4142 25.3811 10.1743V10.1743Z" fill="#D09865"/>
<path d="M25.3811 13.9527C27.5049 13.7132 29.6411 13.6004 31.7784 13.6149C33.9157 13.5987 36.052 13.7115 38.1757 13.9527C36.052 14.1939 33.9157 14.3067 31.7784 14.2905C29.6411 14.3047 27.5049 14.1919 25.3811 13.9527V13.9527Z" fill="#D09865"/>
<path d="M12.1622 24.0203C14.286 23.7811 16.4222 23.6683 18.5595 23.6824C20.6967 23.6662 22.8331 23.7791 24.9568 24.0203C22.8331 24.2615 20.6967 24.3743 18.5595 24.3581C16.4222 24.3726 14.286 24.2598 12.1622 24.0203V24.0203Z" fill="#D09865"/>
<path d="M12.1622 27.7986C14.286 27.5588 16.4222 27.446 18.5595 27.4608C20.6967 27.4446 22.8331 27.5574 24.9568 27.7986C22.833 28.0395 20.6967 28.1523 18.5595 28.1365C16.4222 28.151 14.286 28.0382 12.1622 27.7986V27.7986Z" fill="#D09865"/>
<path d="M41.0203 17.9108H19.1486C19.059 17.9108 18.9731 17.8752 18.9098 17.8119C18.8464 17.7485 18.8108 17.6626 18.8108 17.573V6.55405C18.8108 6.46445 18.8464 6.37852 18.9098 6.31517C18.9731 6.25181 19.059 6.21622 19.1486 6.21622H41.0203C41.0966 6.21631 41.1707 6.24228 41.2304 6.28987L48.1831 11.8027C48.2229 11.8343 48.2551 11.8746 48.2772 11.9204C48.2993 11.9662 48.3108 12.0164 48.3108 12.0672C48.3108 12.1181 48.2993 12.1683 48.2772 12.2141C48.2551 12.2599 48.2229 12.3001 48.1831 12.3318L41.2304 17.8378C41.1706 17.8852 41.0965 17.9109 41.0203 17.9108V17.9108ZM19.4865 17.2351H40.9054L47.4318 12.0669L40.9027 6.89189H19.4865V17.2351Z" fill="#323C6B"/>
<path d="M30.8514 31.7568H8.97973C8.90346 31.7569 8.82939 31.7311 8.7696 31.6838L1.81689 26.1777C1.77694 26.1461 1.74467 26.1058 1.72248 26.06C1.7003 26.0141 1.68877 25.9638 1.68877 25.9128C1.68877 25.8619 1.7003 25.8116 1.72248 25.7657C1.74467 25.7199 1.77694 25.6796 1.81689 25.648L8.7696 20.1351C8.82931 20.0876 8.90338 20.0616 8.97973 20.0615H30.8514C30.941 20.0615 31.0269 20.0971 31.0902 20.1604C31.1536 20.2238 31.1892 20.3097 31.1892 20.3993V31.4189C31.1892 31.5085 31.1536 31.5944 31.0902 31.6578C31.0269 31.7212 30.941 31.7568 30.8514 31.7568ZM9.0946 31.0811H30.5135V20.7372H9.0946L2.56824 25.9128L9.0946 31.0811Z" fill="#323C6B"/>
<path d="M17.1216 10.8953C17.032 10.8953 16.9461 10.8597 16.8827 10.7963C16.8194 10.733 16.7838 10.647 16.7838 10.5574V10.1986C16.7838 10.109 16.8194 10.0231 16.8827 9.95976C16.9461 9.8964 17.032 9.86081 17.1216 9.86081C17.2112 9.86081 17.2972 9.8964 17.3605 9.95976C17.4239 10.0231 17.4595 10.109 17.4595 10.1986V10.5574C17.4595 10.647 17.4239 10.733 17.3605 10.7963C17.2972 10.8597 17.2112 10.8953 17.1216 10.8953Z" fill="#323C6B"/>
<path d="M17.1216 9.01622C17.032 9.01622 16.9461 8.98063 16.8827 8.91727C16.8194 8.85391 16.7838 8.76798 16.7838 8.67838V4.52703C16.7838 4.43743 16.8194 4.3515 16.8827 4.28814C16.9461 4.22479 17.032 4.18919 17.1216 4.18919H19.2162C19.3058 4.18919 19.3917 4.22479 19.4551 4.28814C19.5185 4.3515 19.5541 4.43743 19.5541 4.52703C19.5541 4.61663 19.5185 4.70256 19.4551 4.76592C19.3917 4.82928 19.3058 4.86487 19.2162 4.86487H17.4595V8.67838C17.4595 8.76798 17.4239 8.85391 17.3605 8.91727C17.2972 8.98063 17.2112 9.01622 17.1216 9.01622Z" fill="#323C6B"/>
<path d="M19.7635 33.7838H19.4257C19.3361 33.7838 19.2501 33.7482 19.1868 33.6848C19.1234 33.6215 19.0878 33.5356 19.0878 33.446C19.0878 33.3564 19.1234 33.2704 19.1868 33.2071C19.2501 33.1437 19.3361 33.1081 19.4257 33.1081H19.7635C19.8531 33.1081 19.939 33.1437 20.0024 33.2071C20.0658 33.2704 20.1014 33.3564 20.1014 33.446C20.1014 33.5356 20.0658 33.6215 20.0024 33.6848C19.939 33.7482 19.8531 33.7838 19.7635 33.7838Z" fill="#323C6B"/>
<path d="M17.8635 33.7838H12.5845C12.4949 33.7838 12.4089 33.7482 12.3456 33.6848C12.2822 33.6215 12.2466 33.5356 12.2466 33.446C12.2466 33.3564 12.2822 33.2704 12.3456 33.2071C12.4089 33.1437 12.4949 33.1081 12.5845 33.1081H17.8635C17.9531 33.1081 18.039 33.1437 18.1024 33.2071C18.1658 33.2704 18.2014 33.3564 18.2014 33.446C18.2014 33.5356 18.1658 33.6215 18.1024 33.6848C18.039 33.7482 17.9531 33.7838 17.8635 33.7838Z" fill="#323C6B"/>
<path d="M25.9926 16.0135H25.3885C25.272 16.0135 25.1603 15.9672 25.078 15.8849C24.9956 15.8025 24.9493 15.6908 24.9493 15.5743C24.9493 15.4578 24.9956 15.3461 25.078 15.2638C25.1603 15.1814 25.272 15.1351 25.3885 15.1351H25.9926C26.109 15.1351 26.2208 15.1814 26.3031 15.2638C26.3855 15.3461 26.4318 15.4578 26.4318 15.5743C26.4318 15.6908 26.3855 15.8025 26.3031 15.8849C26.2208 15.9672 26.109 16.0135 25.9926 16.0135V16.0135Z" fill="white"/>
<path d="M33.9946 16.0135H27.7324C27.616 16.0135 27.5042 15.9672 27.4219 15.8849C27.3395 15.8025 27.2932 15.6908 27.2932 15.5743C27.2932 15.4578 27.3395 15.3461 27.4219 15.2638C27.5042 15.1814 27.616 15.1351 27.7324 15.1351H33.9946C34.1111 15.1351 34.2228 15.1814 34.3051 15.2638C34.3875 15.3461 34.4338 15.4578 34.4338 15.5743C34.4338 15.6908 34.3875 15.8025 34.3051 15.8849C34.2228 15.9672 34.1111 16.0135 33.9946 16.0135V16.0135Z" fill="white"/>
<path d="M87.392 17.552H79.328V38H73.568V17.552H65.54V12.8H87.392V17.552ZM101.612 18.344C103.412 18.344 105.044 18.764 106.508 19.604C107.996 20.42 109.16 21.584 110 23.096C110.84 24.584 111.26 26.324 111.26 28.316C111.26 30.308 110.84 32.06 110 33.572C109.16 35.06 107.996 36.224 106.508 37.064C105.044 37.88 103.412 38.288 101.612 38.288C99.14 38.288 97.196 37.508 95.78 35.948V44.984H90.164V18.632H95.528V20.864C96.92 19.184 98.948 18.344 101.612 18.344ZM100.64 33.68C102.08 33.68 103.256 33.2 104.168 32.24C105.104 31.256 105.572 29.948 105.572 28.316C105.572 26.684 105.104 25.388 104.168 24.428C103.256 23.444 102.08 22.952 100.64 22.952C99.2 22.952 98.012 23.444 97.076 24.428C96.164 25.388 95.708 26.684 95.708 28.316C95.708 29.948 96.164 31.256 97.076 32.24C98.012 33.2 99.2 33.68 100.64 33.68ZM124.268 38.288C122.228 38.288 120.392 37.868 118.76 37.028C117.152 36.164 115.892 34.976 114.98 33.464C114.068 31.952 113.612 30.236 113.612 28.316C113.612 26.396 114.068 24.68 114.98 23.168C115.892 21.656 117.152 20.48 118.76 19.64C120.392 18.776 122.228 18.344 124.268 18.344C126.308 18.344 128.132 18.776 129.74 19.64C131.348 20.48 132.608 21.656 133.52 23.168C134.432 24.68 134.888 26.396 134.888 28.316C134.888 30.236 134.432 31.952 133.52 33.464C132.608 34.976 131.348 36.164 129.74 37.028C128.132 37.868 126.308 38.288 124.268 38.288ZM124.268 33.68C125.708 33.68 126.884 33.2 127.796 32.24C128.732 31.256 129.2 29.948 129.2 28.316C129.2 26.684 128.732 25.388 127.796 24.428C126.884 23.444 125.708 22.952 124.268 22.952C122.828 22.952 121.64 23.444 120.704 24.428C119.768 25.388 119.3 26.684 119.3 28.316C119.3 29.948 119.768 31.256 120.704 32.24C121.64 33.2 122.828 33.68 124.268 33.68ZM158.011 18.632V38H152.395V23.24H144.331V38H138.751V18.632H158.011ZM171.927 30.656H169.011V38H163.395V18.632H169.011V26.156H172.035L177.291 18.632H183.267L176.499 27.92L183.735 38H177.111L171.927 30.656ZM186.385 18.632H192.001V38H186.385V18.632ZM189.193 15.932C188.161 15.932 187.321 15.632 186.673 15.032C186.025 14.432 185.701 13.688 185.701 12.8C185.701 11.912 186.025 11.168 186.673 10.568C187.321 9.968 188.161 9.668 189.193 9.668C190.225 9.668 191.065 9.956 191.713 10.532C192.361 11.108 192.685 11.828 192.685 12.692C192.685 13.628 192.361 14.408 191.713 15.032C191.065 15.632 190.225 15.932 189.193 15.932Z" fill="#EEEFEE"/>
<path d="M87.392 17.552V18.552H88.392V17.552H87.392ZM79.328 17.552V16.552H78.328V17.552H79.328ZM79.328 38V39H80.328V38H79.328ZM73.568 38H72.568V39H73.568V38ZM73.568 17.552H74.568V16.552H73.568V17.552ZM65.54 17.552H64.54V18.552H65.54V17.552ZM65.54 12.8V11.8H64.54V12.8H65.54ZM87.392 12.8H88.392V11.8H87.392V12.8ZM87.392 16.552H79.328V18.552H87.392V16.552ZM78.328 17.552V38H80.328V17.552H78.328ZM79.328 37H73.568V39H79.328V37ZM74.568 38V17.552H72.568V38H74.568ZM73.568 16.552H65.54V18.552H73.568V16.552ZM66.54 17.552V12.8H64.54V17.552H66.54ZM65.54 13.8H87.392V11.8H65.54V13.8ZM86.392 12.8V17.552H88.392V12.8H86.392ZM106.508 19.604L106.01 20.4714L106.019 20.4762L106.027 20.4808L106.508 19.604ZM110 23.096L109.126 23.5817L109.129 23.5876L110 23.096ZM110 33.572L110.871 34.0636L110.874 34.0576L110 33.572ZM106.508 37.064L106.995 37.9375L107 37.9348L106.508 37.064ZM95.78 35.948L96.5205 35.2759L94.78 33.3584V35.948H95.78ZM95.78 44.984V45.984H96.78V44.984H95.78ZM90.164 44.984H89.164V45.984H90.164V44.984ZM90.164 18.632V17.632H89.164V18.632H90.164ZM95.528 18.632H96.528V17.632H95.528V18.632ZM95.528 20.864H94.528V23.6382L96.298 21.502L95.528 20.864ZM104.168 32.24L103.443 31.5508L103.443 31.5513L104.168 32.24ZM104.168 24.428L103.435 25.1078L103.443 25.117L103.452 25.1261L104.168 24.428ZM97.076 24.428L96.3514 23.7388L96.351 23.7393L97.076 24.428ZM97.076 32.24L96.3426 32.9198L96.3512 32.929L96.36 32.9381L97.076 32.24ZM101.612 19.344C103.249 19.344 104.708 19.7241 106.01 20.4714L107.006 18.7366C105.38 17.8039 103.575 17.344 101.612 17.344V19.344ZM106.027 20.4808C107.346 21.2043 108.376 22.2312 109.126 23.5816L110.874 22.6104C109.944 20.9368 108.646 19.6357 106.989 18.7272L106.027 20.4808ZM109.129 23.5876C109.871 24.9024 110.26 26.4675 110.26 28.316H112.26C112.26 26.1805 111.809 24.2656 110.871 22.6044L109.129 23.5876ZM110.26 28.316C110.26 30.1641 109.872 31.7441 109.126 33.0864L110.874 34.0576C111.808 32.3759 112.26 30.4519 112.26 28.316H110.26ZM109.129 33.0804C108.379 34.4098 107.346 35.4427 106.016 36.1932L107 37.9348C108.646 37.0053 109.941 35.7102 110.871 34.0636L109.129 33.0804ZM106.021 36.1905C104.717 36.9174 103.255 37.288 101.612 37.288V39.288C103.569 39.288 105.371 38.8426 106.995 37.9375L106.021 36.1905ZM101.612 37.288C99.3685 37.288 97.7137 36.5905 96.5205 35.2759L95.0395 36.6201C96.6783 38.4255 98.9115 39.288 101.612 39.288V37.288ZM94.78 35.948V44.984H96.78V35.948H94.78ZM95.78 43.984H90.164V45.984H95.78V43.984ZM91.164 44.984V18.632H89.164V44.984H91.164ZM90.164 19.632H95.528V17.632H90.164V19.632ZM94.528 18.632V20.864H96.528V18.632H94.528ZM96.298 21.502C97.4583 20.1017 99.1735 19.344 101.612 19.344V17.344C98.7225 17.344 96.3817 18.2663 94.758 20.226L96.298 21.502ZM100.64 34.68C102.327 34.68 103.775 34.106 104.893 32.9287L103.443 31.5513C102.737 32.294 101.833 32.68 100.64 32.68V34.68ZM104.893 32.9292C106.04 31.723 106.572 30.1496 106.572 28.316H104.572C104.572 29.7464 104.168 30.789 103.443 31.5508L104.893 32.9292ZM106.572 28.316C106.572 26.4833 106.04 24.9157 104.884 23.7299L103.452 25.1261C104.168 25.8603 104.572 26.8847 104.572 28.316H106.572ZM104.901 23.7482C103.785 22.5439 102.336 21.952 100.64 21.952V23.952C101.824 23.952 102.727 24.3441 103.435 25.1078L104.901 23.7482ZM100.64 21.952C98.9446 21.952 97.4886 22.5433 96.3514 23.7388L97.8006 25.1172C98.5354 24.3447 99.4554 23.952 100.64 23.952V21.952ZM96.351 23.7393C95.2235 24.9261 94.708 26.4904 94.708 28.316H96.708C96.708 26.8776 97.1045 25.8499 97.801 25.1167L96.351 23.7393ZM94.708 28.316C94.708 30.1426 95.2238 31.7126 96.3426 32.9198L97.8094 31.5602C97.1042 30.7994 96.708 29.7534 96.708 28.316H94.708ZM96.36 32.9381C97.4991 34.1064 98.9526 34.68 100.64 34.68V32.68C99.4475 32.68 98.5249 32.2936 97.792 31.5419L96.36 32.9381ZM118.76 37.028L118.287 37.9089L118.295 37.9131L118.302 37.9171L118.76 37.028ZM114.98 33.464L114.124 33.9805L114.124 33.9805L114.98 33.464ZM114.98 23.168L114.124 22.6515L114.124 22.6515L114.98 23.168ZM118.76 19.64L119.223 20.5264L119.228 20.5238L118.76 19.64ZM129.74 19.64L129.267 20.521L129.277 20.5263L129.74 19.64ZM133.52 23.168L134.376 22.6515L134.376 22.6515L133.52 23.168ZM133.52 33.464L134.376 33.9805L134.376 33.9805L133.52 33.464ZM129.74 37.028L130.203 37.9144L130.213 37.9089L129.74 37.028ZM127.796 32.24L127.072 31.5508L127.071 31.5513L127.796 32.24ZM127.796 24.428L127.063 25.1078L127.071 25.117L127.08 25.1261L127.796 24.428ZM120.704 24.428L121.42 25.1262L121.429 25.1172L120.704 24.428ZM120.704 32.24L119.979 32.9293L119.988 32.9381L120.704 32.24ZM124.268 37.288C122.369 37.288 120.693 36.8982 119.218 36.1389L118.302 37.9171C120.091 38.8378 122.087 39.288 124.268 39.288V37.288ZM119.233 36.1471C117.778 35.365 116.653 34.3005 115.836 32.9475L114.124 33.9805C115.132 35.6515 116.526 36.963 118.287 37.9089L119.233 36.1471ZM115.836 32.9475C115.027 31.6049 114.612 30.0704 114.612 28.316H112.612C112.612 30.4016 113.11 32.2991 114.124 33.9805L115.836 32.9475ZM114.612 28.316C114.612 26.5616 115.027 25.0271 115.836 23.6845L114.124 22.6515C113.11 24.3329 112.612 26.2304 112.612 28.316H114.612ZM115.836 23.6845C116.651 22.334 117.773 21.2839 119.223 20.5263L118.297 18.7536C116.531 19.6761 115.133 20.978 114.124 22.6515L115.836 23.6845ZM119.228 20.5238C120.701 19.7438 122.374 19.344 124.268 19.344V17.344C122.082 17.344 120.083 17.8081 118.292 18.7562L119.228 20.5238ZM124.268 19.344C126.163 19.344 127.821 19.7439 129.267 20.5209L130.213 18.7591C128.443 17.8081 126.454 17.344 124.268 17.344V19.344ZM129.277 20.5263C130.727 21.2839 131.849 22.334 132.664 23.6845L134.376 22.6515C133.367 20.978 131.969 19.6761 130.203 18.7536L129.277 20.5263ZM132.664 23.6845C133.474 25.0271 133.888 26.5616 133.888 28.316H135.888C135.888 26.2304 135.391 24.3329 134.376 22.6515L132.664 23.6845ZM133.888 28.316C133.888 30.0704 133.474 31.6049 132.664 32.9475L134.376 33.9805C135.391 32.2991 135.888 30.4016 135.888 28.316H133.888ZM132.664 32.9475C131.848 34.3005 130.722 35.365 129.267 36.1471L130.213 37.9089C131.974 36.963 133.369 35.6515 134.376 33.9805L132.664 32.9475ZM129.277 36.1417C127.829 36.8981 126.167 37.288 124.268 37.288V39.288C126.449 39.288 128.435 38.8379 130.203 37.9143L129.277 36.1417ZM124.268 34.68C125.956 34.68 127.403 34.106 128.521 32.9287L127.071 31.5513C126.365 32.294 125.461 32.68 124.268 32.68V34.68ZM128.521 32.9292C129.668 31.723 130.2 30.1496 130.2 28.316H128.2C128.2 29.7464 127.796 30.789 127.072 31.5508L128.521 32.9292ZM130.2 28.316C130.2 26.4833 129.668 24.9157 128.512 23.7299L127.08 25.1261C127.796 25.8603 128.2 26.8847 128.2 28.316H130.2ZM128.53 23.7482C127.413 22.5439 125.964 21.952 124.268 21.952V23.952C125.453 23.952 126.355 24.3441 127.063 25.1078L128.53 23.7482ZM124.268 21.952C122.573 21.952 121.117 22.5433 119.98 23.7388L121.429 25.1172C122.164 24.3447 123.083 23.952 124.268 23.952V21.952ZM119.988 23.7299C118.832 24.9157 118.3 26.4833 118.3 28.316H120.3C120.3 26.8847 120.704 25.8603 121.42 25.1261L119.988 23.7299ZM118.3 28.316C118.3 30.1496 118.832 31.723 119.98 32.9292L121.429 31.5508C120.704 30.789 120.3 29.7464 120.3 28.316H118.3ZM119.988 32.9381C121.127 34.1064 122.581 34.68 124.268 34.68V32.68C123.076 32.68 122.153 32.2936 121.42 31.5419L119.988 32.9381ZM158.011 18.632H159.011V17.632H158.011V18.632ZM158.011 38V39H159.011V38H158.011ZM152.395 38H151.395V39H152.395V38ZM152.395 23.24H153.395V22.24H152.395V23.24ZM144.331 23.24V22.24H143.331V23.24H144.331ZM144.331 38V39H145.331V38H144.331ZM138.751 38H137.751V39H138.751V38ZM138.751 18.632V17.632H137.751V18.632H138.751ZM157.011 18.632V38H159.011V18.632H157.011ZM158.011 37H152.395V39H158.011V37ZM153.395 38V23.24H151.395V38H153.395ZM152.395 22.24H144.331V24.24H152.395V22.24ZM143.331 23.24V38H145.331V23.24H143.331ZM144.331 37H138.751V39H144.331V37ZM139.751 38V18.632H137.751V38H139.751ZM138.751 19.632H158.011V17.632H138.751V19.632ZM171.927 30.656L172.744 30.0793L172.445 29.656H171.927V30.656ZM169.011 30.656V29.656H168.011V30.656H169.011ZM169.011 38V39H170.011V38H169.011ZM163.395 38H162.395V39H163.395V38ZM163.395 18.632V17.632H162.395V18.632H163.395ZM169.011 18.632H170.011V17.632H169.011V18.632ZM169.011 26.156H168.011V27.156H169.011V26.156ZM172.035 26.156V27.156H172.557L172.855 26.7287L172.035 26.156ZM177.291 18.632V17.632H176.77L176.472 18.0593L177.291 18.632ZM183.267 18.632L184.076 19.2209L185.233 17.632H183.267V18.632ZM176.499 27.92L175.691 27.3311L175.265 27.9156L175.687 28.5032L176.499 27.92ZM183.735 38V39H185.684L184.548 37.4168L183.735 38ZM177.111 38L176.294 38.5767L176.593 39H177.111V38ZM171.927 29.656H169.011V31.656H171.927V29.656ZM168.011 30.656V38H170.011V30.656H168.011ZM169.011 37H163.395V39H169.011V37ZM164.395 38V18.632H162.395V38H164.395ZM163.395 19.632H169.011V17.632H163.395V19.632ZM168.011 18.632V26.156H170.011V18.632H168.011ZM169.011 27.156H172.035V25.156H169.011V27.156ZM172.855 26.7287L178.111 19.2047L176.472 18.0593L171.216 25.5833L172.855 26.7287ZM177.291 19.632H183.267V17.632H177.291V19.632ZM182.459 18.0431L175.691 27.3311L177.308 28.5089L184.076 19.2209L182.459 18.0431ZM175.687 28.5032L182.923 38.5832L184.548 37.4168L177.312 27.3368L175.687 28.5032ZM183.735 37H177.111V39H183.735V37ZM177.928 37.4233L172.744 30.0793L171.11 31.2327L176.294 38.5767L177.928 37.4233ZM186.385 18.632V17.632H185.385V18.632H186.385ZM192.001 18.632H193.001V17.632H192.001V18.632ZM192.001 38V39H193.001V38H192.001ZM186.385 38H185.385V39H186.385V38ZM186.673 15.032L185.994 15.7658L185.994 15.7658L186.673 15.032ZM186.673 10.568L187.352 11.3018L187.352 11.3018L186.673 10.568ZM191.713 10.532L191.049 11.2794L191.049 11.2794L191.713 10.532ZM191.713 15.032L192.392 15.7658L192.4 15.7591L192.407 15.7523L191.713 15.032ZM186.385 19.632H192.001V17.632H186.385V19.632ZM191.001 18.632V38H193.001V18.632H191.001ZM192.001 37H186.385V39H192.001V37ZM187.385 38V18.632H185.385V38H187.385ZM189.193 14.932C188.368 14.932 187.785 14.6986 187.352 14.2982L185.994 15.7658C186.857 16.5654 187.954 16.932 189.193 16.932V14.932ZM187.352 14.2982C186.91 13.8887 186.701 13.4112 186.701 12.8H184.701C184.701 13.9648 185.14 14.9753 185.994 15.7658L187.352 14.2982ZM186.701 12.8C186.701 12.1888 186.91 11.7113 187.352 11.3018L185.994 9.83424C185.14 10.6247 184.701 11.6352 184.701 12.8H186.701ZM187.352 11.3018C187.785 10.9014 188.368 10.668 189.193 10.668V8.668C187.954 8.668 186.857 9.03461 185.994 9.83424L187.352 11.3018ZM189.193 10.668C190.029 10.668 190.617 10.8961 191.049 11.2794L192.377 9.78459C191.513 9.01595 190.421 8.668 189.193 8.668V10.668ZM191.049 11.2794C191.484 11.6664 191.685 12.1148 191.685 12.692H193.685C193.685 11.5412 193.238 10.5496 192.377 9.78459L191.049 11.2794ZM191.685 12.692C191.685 13.3686 191.463 13.8846 191.019 14.3117L192.407 15.7523C193.259 14.9314 193.685 13.8874 193.685 12.692H191.685ZM191.034 14.2982C190.601 14.6986 190.018 14.932 189.193 14.932V16.932C190.432 16.932 191.529 16.5654 192.392 15.7658L191.034 14.2982Z" fill="#323C6B"/>
</svg>
