<svg width="50" height="50" viewBox="0 0 50 50" fill="none" xmlns="http://www.w3.org/2000/svg">
<path d="M22.8885 3.27026H27.3345V6.55405H22.8885V3.27026Z" fill="#EEEFEE"/>
<path d="M22.8885 17.1959H27.3345V20.4H22.8885V17.1959Z" fill="#EEEFEE"/>
<path d="M22.8885 30.5676H27.3345V46.7297H22.8885V30.5676Z" fill="#EEEFEE"/>
<path d="M25.3784 3.27026H27.3311V6.55405H25.3784V3.27026Z" fill="#E1E6E9"/>
<path d="M25.3784 17.1959H27.3311V20.3986H25.3784V17.1959Z" fill="#E1E6E9"/>
<path d="M25.3784 30.5676H27.3311V46.7297H25.3784V30.5676Z" fill="#E1E6E9"/>
<path d="M27.3345 6.89189H22.8885C22.7989 6.89189 22.713 6.8563 22.6496 6.79294C22.5863 6.72959 22.5507 6.64366 22.5507 6.55406V3.27027C22.5507 3.18067 22.5863 3.09474 22.6496 3.03138C22.713 2.96803 22.7989 2.93243 22.8885 2.93243H27.3345C27.4241 2.93243 27.51 2.96803 27.5733 3.03138C27.6367 3.09474 27.6723 3.18067 27.6723 3.27027V6.55406C27.6723 6.64366 27.6367 6.72959 27.5733 6.79294C27.51 6.8563 27.4241 6.89189 27.3345 6.89189ZM23.2264 6.21622H26.9966V3.60811H23.2264V6.21622Z" fill="#323C6B"/>
<path d="M27.3345 20.7372H22.8885C22.7989 20.7372 22.713 20.7016 22.6496 20.6382C22.5863 20.5749 22.5507 20.4889 22.5507 20.3993V17.1959C22.5507 17.1063 22.5863 17.0204 22.6496 16.9571C22.713 16.8937 22.7989 16.8581 22.8885 16.8581H27.3345C27.4241 16.8581 27.51 16.8937 27.5733 16.9571C27.6367 17.0204 27.6723 17.1063 27.6723 17.1959V20.3993C27.6723 20.4889 27.6367 20.5749 27.5733 20.6382C27.51 20.7016 27.4241 20.7372 27.3345 20.7372ZM23.2264 20.0615H26.9966V17.5338H23.2264V20.0615Z" fill="#323C6B"/>
<path d="M27.3345 47.0676H22.8885C22.7989 47.0676 22.713 47.032 22.6496 46.9686C22.5863 46.9053 22.5507 46.8193 22.5507 46.7297V30.5676C22.5507 30.478 22.5863 30.392 22.6496 30.3287C22.713 30.2653 22.7989 30.2297 22.8885 30.2297H27.3345C27.4241 30.2297 27.51 30.2653 27.5733 30.3287C27.6367 30.392 27.6723 30.478 27.6723 30.5676V46.7297C27.6723 46.8193 27.6367 46.9053 27.5733 46.9686C27.51 47.032 27.4241 47.0676 27.3345 47.0676ZM23.2264 46.3919H26.9966V30.9054H23.2264V46.3919Z" fill="#323C6B"/>
<path d="M47.973 12.0669L41.0203 17.573H19.1486V6.55406H41.0203L47.973 12.0669Z" fill="#E7AA6C"/>
<path d="M30.8514 20.4V31.4189H8.97973L2.02703 25.9128L8.97973 20.4H30.8514Z" fill="#E7AA6C"/>
<path d="M47.973 12.0676L46.0878 13.5608L39.7838 8.56082H19.1486V6.55406H41.0203L47.973 12.0676Z" fill="#D09865"/>
<path d="M30.8514 20.3987V22.2905H9.34459L3.40541 27L2.02703 25.9122L8.97973 20.3987H30.8514Z" fill="#D09865"/>
<path d="M25.3811 10.1743C27.5049 9.9348 29.6411 9.82199 31.7784 9.83649C33.9157 9.82064 36.052 9.93345 38.1757 10.1743C36.052 10.4155 33.9157 10.5283 31.7784 10.5122C29.6411 10.527 27.5049 10.4142 25.3811 10.1743Z" fill="#D09865"/>
<path d="M25.3811 13.9527C27.5049 13.7132 29.6411 13.6004 31.7784 13.6149C33.9157 13.5987 36.052 13.7115 38.1757 13.9527C36.052 14.1939 33.9157 14.3067 31.7784 14.2905C29.6411 14.3047 27.5049 14.1919 25.3811 13.9527Z" fill="#D09865"/>
<path d="M12.1622 24.0203C14.286 23.7811 16.4222 23.6683 18.5595 23.6824C20.6967 23.6662 22.8331 23.7791 24.9568 24.0203C22.8331 24.2615 20.6967 24.3743 18.5595 24.3581C16.4222 24.3726 14.286 24.2598 12.1622 24.0203Z" fill="#D09865"/>
<path d="M12.1622 27.7986C14.286 27.5588 16.4222 27.446 18.5595 27.4608C20.6967 27.4446 22.8331 27.5574 24.9568 27.7986C22.833 28.0395 20.6967 28.1523 18.5595 28.1365C16.4222 28.151 14.286 28.0382 12.1622 27.7986Z" fill="#D09865"/>
<path d="M41.0203 17.9108H19.1486C19.059 17.9108 18.9731 17.8752 18.9098 17.8119C18.8464 17.7485 18.8108 17.6626 18.8108 17.573V6.55405C18.8108 6.46445 18.8464 6.37852 18.9098 6.31517C18.9731 6.25181 19.059 6.21622 19.1486 6.21622H41.0203C41.0966 6.21631 41.1707 6.24228 41.2304 6.28987L48.1831 11.8027C48.2229 11.8343 48.2551 11.8746 48.2772 11.9204C48.2993 11.9662 48.3108 12.0164 48.3108 12.0672C48.3108 12.1181 48.2993 12.1683 48.2772 12.2141C48.2551 12.2599 48.2229 12.3001 48.1831 12.3318L41.2304 17.8378C41.1706 17.8852 41.0965 17.9109 41.0203 17.9108ZM19.4865 17.2351H40.9054L47.4318 12.0669L40.9027 6.89189H19.4865V17.2351Z" fill="#323C6B"/>
<path d="M30.8514 31.7568H8.97973C8.90346 31.7569 8.82939 31.7311 8.7696 31.6838L1.81689 26.1777C1.77694 26.1461 1.74467 26.1058 1.72248 26.06C1.7003 26.0141 1.68877 25.9638 1.68877 25.9128C1.68877 25.8619 1.7003 25.8116 1.72248 25.7657C1.74467 25.7199 1.77694 25.6796 1.81689 25.648L8.7696 20.1351C8.82931 20.0876 8.90338 20.0616 8.97973 20.0615H30.8514C30.941 20.0615 31.0269 20.0971 31.0902 20.1604C31.1536 20.2238 31.1892 20.3097 31.1892 20.3993V31.4189C31.1892 31.5085 31.1536 31.5944 31.0902 31.6578C31.0269 31.7212 30.941 31.7568 30.8514 31.7568ZM9.0946 31.0811H30.5135V20.7372H9.0946L2.56824 25.9128L9.0946 31.0811Z" fill="#323C6B"/>
<path d="M17.1216 10.8953C17.032 10.8953 16.9461 10.8597 16.8827 10.7963C16.8194 10.733 16.7838 10.647 16.7838 10.5574V10.1986C16.7838 10.109 16.8194 10.0231 16.8827 9.95976C16.9461 9.8964 17.032 9.86081 17.1216 9.86081C17.2112 9.86081 17.2972 9.8964 17.3605 9.95976C17.4239 10.0231 17.4595 10.109 17.4595 10.1986V10.5574C17.4595 10.647 17.4239 10.733 17.3605 10.7963C17.2972 10.8597 17.2112 10.8953 17.1216 10.8953Z" fill="#323C6B"/>
<path d="M17.1216 9.01622C17.032 9.01622 16.9461 8.98063 16.8827 8.91727C16.8194 8.85391 16.7838 8.76798 16.7838 8.67838V4.52703C16.7838 4.43743 16.8194 4.3515 16.8827 4.28814C16.9461 4.22479 17.032 4.18919 17.1216 4.18919H19.2162C19.3058 4.18919 19.3917 4.22479 19.4551 4.28814C19.5185 4.3515 19.5541 4.43743 19.5541 4.52703C19.5541 4.61663 19.5185 4.70256 19.4551 4.76592C19.3917 4.82928 19.3058 4.86487 19.2162 4.86487H17.4595V8.67838C17.4595 8.76798 17.4239 8.85391 17.3605 8.91727C17.2972 8.98063 17.2112 9.01622 17.1216 9.01622Z" fill="#323C6B"/>
<path d="M19.7635 33.7838H19.4257C19.3361 33.7838 19.2501 33.7482 19.1868 33.6848C19.1234 33.6215 19.0878 33.5356 19.0878 33.446C19.0878 33.3564 19.1234 33.2704 19.1868 33.2071C19.2501 33.1437 19.3361 33.1081 19.4257 33.1081H19.7635C19.8531 33.1081 19.939 33.1437 20.0024 33.2071C20.0658 33.2704 20.1014 33.3564 20.1014 33.446C20.1014 33.5356 20.0658 33.6215 20.0024 33.6848C19.939 33.7482 19.8531 33.7838 19.7635 33.7838Z" fill="#323C6B"/>
<path d="M17.8635 33.7838H12.5845C12.4949 33.7838 12.4089 33.7482 12.3456 33.6848C12.2822 33.6215 12.2466 33.5356 12.2466 33.446C12.2466 33.3564 12.2822 33.2704 12.3456 33.2071C12.4089 33.1437 12.4949 33.1081 12.5845 33.1081H17.8635C17.9531 33.1081 18.039 33.1437 18.1024 33.2071C18.1658 33.2704 18.2014 33.3564 18.2014 33.446C18.2014 33.5356 18.1658 33.6215 18.1024 33.6848C18.039 33.7482 17.9531 33.7838 17.8635 33.7838Z" fill="#323C6B"/>
<path d="M25.9926 16.0135H25.3885C25.272 16.0135 25.1603 15.9672 25.078 15.8849C24.9956 15.8025 24.9493 15.6908 24.9493 15.5743C24.9493 15.4578 24.9956 15.3461 25.078 15.2638C25.1603 15.1814 25.272 15.1351 25.3885 15.1351H25.9926C26.109 15.1351 26.2208 15.1814 26.3031 15.2638C26.3855 15.3461 26.4318 15.4578 26.4318 15.5743C26.4318 15.6908 26.3855 15.8025 26.3031 15.8849C26.2208 15.9672 26.109 16.0135 25.9926 16.0135Z" fill="white"/>
<path d="M33.9946 16.0135H27.7324C27.616 16.0135 27.5042 15.9672 27.4219 15.8849C27.3395 15.8025 27.2932 15.6908 27.2932 15.5743C27.2932 15.4578 27.3395 15.3461 27.4219 15.2638C27.5042 15.1814 27.616 15.1351 27.7324 15.1351H33.9946C34.1111 15.1351 34.2228 15.1814 34.3051 15.2638C34.3875 15.3461 34.4338 15.4578 34.4338 15.5743C34.4338 15.6908 34.3875 15.8025 34.3051 15.8849C34.2228 15.9672 34.1111 16.0135 33.9946 16.0135Z" fill="white"/>
</svg>
